<svg xmlns="http://www.w3.org/2000/svg" enable-background="new 0 0 24 24" viewBox="0 0 24 24"><path fill="none" stroke="#303c42" stroke-linecap="round" stroke-linejoin="round" d="M0.5,3.5c0,0,5.7,7,6.5,7c1.7,0.4,3.3,1.2,4.5,2.5c1.2,1.2,6.6,7.6,8.4,9.8c0.4,0.5,1,0.7,1.6,0.7l0,0    c1.1,0,2-0.9,2-2l0,0c0-0.6-0.3-1.2-0.7-1.6c-2.1-1.9-8.5-7.2-9.7-8.4c-1.3-1.2-2.1-2.8-2.5-4.5c0-0.8-7-6.5-7-6.5L0.5,3.5z"/><path fill="none" stroke="#303c42" stroke-linecap="round" stroke-linejoin="round" d="M13.6 12L13 11.5c-.4-.4-.7-.8-1-1.2.4-.7.6-1.5.5-2.3 0-.6 5.8-5.2 9-7.2.7-.3 1.5 0 1.8.6C23.5 2 23.4 2.6 23 3 21.4 4.4 16 9.8 13.6 12zM10.4 12.1c.4.3.8.6 1.1.9l.5.5c-1.8 2-6.3 7.3-7.9 9.2-.4.5-1 .7-1.6.7l0 0c-1.1 0-2-.9-2-2l0 0c0-.6.3-1.2.7-1.6C3.2 18.3 8.4 13.9 10.4 12.1z"/><line x1="2.5" x2="7.5" y1="1.5" y2="6.5" fill="none" stroke="#303c42" stroke-linecap="round" stroke-linejoin="round"/><line x1="1.5" x2="6.5" y1="2.5" y2="7.5" fill="none" stroke="#303c42" stroke-linecap="round" stroke-linejoin="round"/></svg>